<svg xmlns="http://www.w3.org/2000/svg" width="172.28" height="53.001" viewBox="0 0 172.28 53.001"><g transform="translate(-903.86 -3)"><g transform="translate(-239.141 -982.999)"><path d="M2.754,22.16C-1.211,12.534-2.6,2.567-2.6-7.712A79.255,79.255,0,0,1-1.583-20.956H2.2A58.826,58.826,0,0,0,1-8.29,95.642,95.642,0,0,0,4.69,18.716,95.642,95.642,0,0,0,8.379-8.29a58.957,58.957,0,0,0-1.2-12.666h3.78A79.257,79.257,0,0,1,11.984-7.712c0,10.279-1.395,20.246-5.36,29.872Z" transform="translate(1157.964 1013.373)" fill="#ff9027"/><path d="M.141.113A.841.841,0,1,1,.085,1.3.84.84,0,0,1,.141.113" transform="translate(1176.027 1002.916)" fill="#ff9027"/><path d="M.141.112A.841.841,0,1,1,.085,1.3.842.842,0,0,1,.141.112" transform="translate(1176.027 1005.523)" fill="#ff9027"/><path d="M.141.112a.838.838,0,0,1,1.185.06A.839.839,0,0,1,.085,1.3.844.844,0,0,1,.141.112" transform="translate(1177.804 1007.555)" fill="#ff9027"/><path d="M.141.112A.841.841,0,1,1,.085,1.3.842.842,0,0,1,.141.112" transform="translate(1175.499 1014.356)" fill="#ff9027"/><path d="M.157.1A.84.84,0,1,1,.042,1.281.839.839,0,0,1,.157.1" transform="translate(1175.393 1017.011)" fill="#ff9027"/><path d="M.161.094A.841.841,0,1,1,.03,1.275.844.844,0,0,1,.161.094" transform="translate(1177.086 1019.129)" fill="#ff9027"/><path d="M.141.112A.839.839,0,1,1,.085,1.3.839.839,0,0,1,.141.112" transform="translate(1177.278 1012.733)" fill="#ff9027"/><path d="M.18.08a.839.839,0,1,1-.2,1.169A.836.836,0,0,1,.18.08" transform="translate(1173.744 1025.723)" fill="#ff9027"/><path d="M.191.073a.839.839,0,1,1-.23,1.165A.839.839,0,0,1,.191.073" transform="translate(1173.536 1028.648)" fill="#ff9027"/><path d="M.182.079a.84.84,0,1,1-.2,1.169A.841.841,0,0,1,.182.079" transform="translate(1175.723 1024.306)" fill="#ff9027"/><path d="M.044.243A.84.84,0,1,1,.434,1.364.836.836,0,0,1,.044.243" transform="translate(1179.919 998.847)" fill="#ff9027"/><path d="M0,.411a.84.84,0,1,1,.8.879A.842.842,0,0,1,0,.411" transform="translate(1180.651 996.067)" fill="#ff9027"/><path d="M.008.512a.84.84,0,1,1,.981.669A.842.842,0,0,1,.008.512" transform="translate(1180.542 992.977)" fill="#ff9027"/><path d="M.058.649A.841.841,0,0,1,1.511-.2.841.841,0,0,1,.058.649" transform="translate(1179.564 990.163)" fill="#ff9027"/><path d="M.14.112A.84.84,0,1,1,.085,1.3.844.844,0,0,1,.14.112" transform="translate(1178.125 1000.972)" fill="#ff9027"/><path d="M.722.113A.84.84,0,0,0-.465.168.842.842,0,0,0-.408,1.355.84.84,0,0,0,.722.113" transform="translate(1148.442 1002.916)" fill="#ff9027"/><path d="M.722.112A.842.842,0,0,0-.465.168.84.84,0,0,0,.778,1.3.842.842,0,0,0,.722.112" transform="translate(1148.442 1005.523)" fill="#ff9027"/><path d="M.721.112A.835.835,0,0,0-.462.171.84.84,0,0,0-.411,1.354.841.841,0,0,0,.776,1.3.842.842,0,0,0,.721.112" transform="translate(1146.666 1007.555)" fill="#ff9027"/><path d="M.723.112A.839.839,0,0,0-.462.168.838.838,0,1,0,.776,1.3.839.839,0,0,0,.723.112" transform="translate(1148.971 1014.356)" fill="#ff9027"/><path d="M.706.1A.84.84,0,1,0,.821,1.281.842.842,0,0,0,.706.1" transform="translate(1149.077 1017.011)" fill="#ff9027"/><path d="M.7.094A.841.841,0,0,0-.346,1.41.84.84,0,0,0,.833,1.275.844.844,0,0,0,.7.094" transform="translate(1147.384 1019.129)" fill="#ff9027"/><path d="M.722.112A.842.842,0,0,0-.465.168.843.843,0,0,0-.41,1.355.837.837,0,0,0,.776,1.3.839.839,0,0,0,.722.112" transform="translate(1147.194 1012.733)" fill="#ff9027"/><path d="M.681.08a.833.833,0,0,0-1.167.2A.833.833,0,0,0-.292,1.446a.838.838,0,0,0,1.171-.2A.834.834,0,0,0,.681.08" transform="translate(1150.726 1025.723)" fill="#ff9027"/><path d="M.671.073A.839.839,0,0,0-.494.3a.84.84,0,0,0,1.4.934A.842.842,0,0,0,.671.073" transform="translate(1150.934 1028.648)" fill="#ff9027"/><path d="M.68.079a.838.838,0,0,0-1.169.2.842.842,0,0,0,.2,1.171A.84.84,0,0,0,.68.079" transform="translate(1148.748 1024.306)" fill="#ff9027"/><path d="M.82.243A.837.837,0,0,0-.3-.144.836.836,0,0,0-.69.975a.834.834,0,0,0,1.119.389A.838.838,0,0,0,.82.243" transform="translate(1144.55 998.847)" fill="#ff9027"/><path d="M.862.411a.84.84,0,0,0-.881-.8.84.84,0,0,0-.8.881.838.838,0,0,0,.879.8.838.838,0,0,0,.8-.879" transform="translate(1143.817 996.067)" fill="#ff9027"/><path d="M.856.512A.842.842,0,0,0,.185-.469.838.838,0,0,0-.794.2a.839.839,0,0,0,.669.979A.84.84,0,0,0,.856.512" transform="translate(1143.927 992.977)" fill="#ff9027"/><path d="M.8.649A.84.84,0,0,0,.5-.5a.842.842,0,0,0-1.15.3A.84.84,0,0,0-.344.949.838.838,0,0,0,.8.649" transform="translate(1144.905 990.163)" fill="#ff9027"/><path d="M.723.112A.84.84,0,1,0,.776,1.3.841.841,0,0,0,.723.112" transform="translate(1146.344 1000.972)" fill="#ff9027"/><path d="M2.986,1.2a.715.715,0,1,1,.047,1.012A.717.717,0,0,1,2.986,1.2M9.738,38.561,4.944,35.183a.889.889,0,0,1-.14-1.247l3.208-3.753a1.778,1.778,0,0,0-.119-2.516L3.879,24.01a.887.887,0,0,1-.056-1.253l3.66-4.012a1.782,1.782,0,0,0-.117-2.516L2.052,11.371a1.842,1.842,0,0,1-.115-2.514L7.469,1.469a1.484,1.484,0,0,0-.1-2.1,2.428,2.428,0,0,0-1.99-.479A9.2,9.2,0,0,0-2.761,9.32c.288,2.658,1.234,3.613,1.755,4.086L3,17.06a.887.887,0,0,1,.06,1.255L-.6,22.327a1.78,1.78,0,0,0,.117,2.516L3.527,28.5a.888.888,0,0,1,.06,1.253L.365,33.792A1.779,1.779,0,0,0,.64,36.3l4.8,3.424a.889.889,0,0,1,.15,1.247l-2.068,3.09a1.781,1.781,0,1,0,2.895,2.074l3.617-5.072a1.777,1.777,0,0,0-.3-2.5" transform="translate(1147.44 987.132)" fill="#ff9027"/><path d="M3.8,1.717A.715.715,0,1,1,3.842.705.715.715,0,0,1,3.8,1.717M1.449-1.6A2.428,2.428,0,0,0-.54-1.12a1.482,1.482,0,0,0-.1,2.1L4.9,8.365a1.849,1.849,0,0,1-.117,2.516L-.536,15.737a1.78,1.78,0,0,0-.117,2.516l3.662,4.012a.888.888,0,0,1-.06,1.253l-4.016,3.656a1.784,1.784,0,0,0-.115,2.516l3.208,3.753a.885.885,0,0,1-.14,1.247l-4.794,3.378a1.779,1.779,0,0,0-.3,2.5L.408,45.642a1.782,1.782,0,0,0,2.9-2.076l-2.07-3.09a.888.888,0,0,1,.154-1.247l4.8-3.424a1.778,1.778,0,0,0,.276-2.5L3.248,29.265A.888.888,0,0,1,3.3,28.01l4.012-3.658a1.784,1.784,0,0,0,.121-2.516l-3.664-4.01a.892.892,0,0,1,.062-1.255l4-3.656c.521-.473,1.465-1.426,1.755-4.086A9.2,9.2,0,0,0,1.449-1.6" transform="translate(1171.063 987.623)" fill="#ff9027"/><path d="M52.165,5.534V-3.71h2.574a8.652,8.652,0,0,1,1.8.185,3.891,3.891,0,0,1,1.313.549,4.133,4.133,0,0,1,1.4,1.638,4.909,4.909,0,0,1,.5,2.259,5.053,5.053,0,0,1-.5,2.263,4.23,4.23,0,0,1-1.4,1.632,3.938,3.938,0,0,1-1.313.556,8.789,8.789,0,0,1-1.8.163Zm4.847.514a4.33,4.33,0,0,0,1.56-.751,5.117,5.117,0,0,0,1.56-1.9A5.616,5.616,0,0,0,60.691.9a5.66,5.66,0,0,0-.56-2.494,5.11,5.11,0,0,0-1.56-1.9,4.39,4.39,0,0,0-1.543-.753,8.6,8.6,0,0,0-2.078-.237H51.274V6.3h3.677a7.484,7.484,0,0,0,2.062-.253M41.6,2.011l1.963-4.66L45.5,2.011Zm1.78-6.08L38.948,6.3h.86L41.32,2.715h4.459L47.293,6.3h.862L43.721-4.068Zm-14.565,9.6V-3.71h2.566a8.688,8.688,0,0,1,1.806.185,3.92,3.92,0,0,1,1.315.549,4.271,4.271,0,0,1,1.405,1.638A5.066,5.066,0,0,1,36.4.921a5.217,5.217,0,0,1-.494,2.263A4.375,4.375,0,0,1,34.5,4.816a3.967,3.967,0,0,1-1.315.556,8.824,8.824,0,0,1-1.806.163Zm4.841.514A4.6,4.6,0,0,0,35.22,5.3a5.218,5.218,0,0,0,1.56-1.9A5.666,5.666,0,0,0,37.331.9a5.71,5.71,0,0,0-.551-2.494,5.211,5.211,0,0,0-1.56-1.9,4.667,4.667,0,0,0-1.551-.753,8.5,8.5,0,0,0-2.074-.237H27.9V6.3h3.693a7.479,7.479,0,0,0,2.06-.253M23.914-4.48h-.907V6.3h.907ZM19.571,3.5A3.281,3.281,0,0,0,19.4,2.478a2.836,2.836,0,0,0-.525-.856A5.646,5.646,0,0,0,16.9.456C16.8.4,16.725.38,16.672.343a4.842,4.842,0,0,1-1.708-1,1.622,1.622,0,0,1-.4-1.146,1.91,1.91,0,0,1,.607-1.457,2.272,2.272,0,0,1,1.576-.574,3.479,3.479,0,0,1,1.187.214,5.517,5.517,0,0,1,1.274.681V-3.9a6.064,6.064,0,0,0-1.2-.541A4.871,4.871,0,0,0,16.8-4.624a3.094,3.094,0,0,0-2.226.811,2.659,2.659,0,0,0-.86,2.039A2.445,2.445,0,0,0,14.267-.1a5.746,5.746,0,0,0,2.1,1.284,5.943,5.943,0,0,1,1.889,1.08,1.744,1.744,0,0,1,.4,1.206,2.034,2.034,0,0,1-.607,1.574,2.3,2.3,0,0,1-1.648.578,3.382,3.382,0,0,1-1.294-.292,6.033,6.033,0,0,1-1.434-.876V5.491a5.685,5.685,0,0,0,1.368.722,4.275,4.275,0,0,0,1.376.23,3.149,3.149,0,0,0,2.263-.821A2.789,2.789,0,0,0,19.571,3.5M4.292-3.741H6.084a2.892,2.892,0,0,1,1.864.516,1.752,1.752,0,0,1,.646,1.451A2.122,2.122,0,0,1,8.31-.62,1.852,1.852,0,0,1,7.43.108,3.462,3.462,0,0,1,6.64.33C6.308.359,5.755.38,4.959.38H4.292Zm0,4.86h.866a5.975,5.975,0,0,1,1.372.126,1.542,1.542,0,0,1,.757.409,6.977,6.977,0,0,1,.568.72c.237.325.539.753.862,1.28L10.423,6.3h.967L8.448,1.767a3.132,3.132,0,0,0-.407-.523A3.955,3.955,0,0,0,7.5.853,3,3,0,0,0,9.026-.139a2.579,2.579,0,0,0,.5-1.636,2.375,2.375,0,0,0-.9-2.006,4.237,4.237,0,0,0-2.6-.7H3.444V6.3h.848ZM-.354,5.565H-5.4V1.184H-.646V.493H-5.4V-3.78H-.479v-.7H-6.259V6.3h5.9Zm-12.989.914L-8.82-4.48h-.916l-3.681,9.047L-17.052-4.48h-.957L-13.47,6.478ZM-22.007,6.3h.914V-4.478h-.914ZM-34.6-3.383l7.89,9.522h.79V-4.624h-.85v9.38l-7.8-9.38h-.9V6.139h.864ZM-44.345,7.254A4.78,4.78,0,0,0-40.678,5.8,5.584,5.584,0,0,0-39.32,1.888V-5.233h-1.027V1.943a4.45,4.45,0,0,1-1.066,3.123,3.879,3.879,0,0,1-2.932,1.167,3.793,3.793,0,0,1-2.907-1.167,4.347,4.347,0,0,1-1.1-3.123V-5.233h-.981V1.888A5.479,5.479,0,0,0-47.986,5.8a4.746,4.746,0,0,0,3.642,1.453m56.151,16.32A5.85,5.85,0,0,1,8.613,26.7,6.406,6.406,0,0,1,4,26.7a5.991,5.991,0,0,1-1.909-1.255A5.423,5.423,0,0,1,.811,23.574a5.329,5.329,0,0,1-.449-2.2,5.584,5.584,0,0,1,.449-2.226A5.642,5.642,0,0,1,2.088,17.3a6.749,6.749,0,0,1,1.961-1.272A5.94,5.94,0,0,1,6.3,15.593a5.952,5.952,0,0,1,2.278.434A5.693,5.693,0,0,1,10.5,17.3a5.831,5.831,0,0,1,1.321,1.9,5.549,5.549,0,0,1,.432,2.173,5.428,5.428,0,0,1-.446,2.2m1.113-8.469a9.274,9.274,0,0,0-3.012-1.911A10.126,10.126,0,0,0,6.3,12.529a9.827,9.827,0,0,0-3.549.665A8.964,8.964,0,0,0-.282,15.105a8.7,8.7,0,0,0-2.049,2.841A8.415,8.415,0,0,0-3.047,21.3,8.516,8.516,0,0,0-.282,27.65a9.27,9.27,0,0,0,3.012,1.9,10.13,10.13,0,0,0,7.158.014,9.61,9.61,0,0,0,3.049-1.916,8.971,8.971,0,0,0,2.027-2.833,8.373,8.373,0,0,0,.7-3.378A8.654,8.654,0,0,0,14.981,18a8.747,8.747,0,0,0-2.062-2.895M68.8,27.024V22.767h8.181V19.794H68.8V15.7h8.436V12.745H65.337V29.981H77.5V27.024Zm-8.7-3.7a3.173,3.173,0,0,1-1.165,2.594,4.747,4.747,0,0,1-3.175,1.016,5.387,5.387,0,0,1-2.1-.4,4.25,4.25,0,0,1-1.582-1.167A2.3,2.3,0,0,1,51.6,24.4a9.172,9.172,0,0,1-.167-2.136v-9.6H48.221V22.36a11.591,11.591,0,0,0,.292,3.014,4.952,4.952,0,0,0,.981,1.862,7.2,7.2,0,0,0,2.712,2.08,8.75,8.75,0,0,0,3.549.7,8,8,0,0,0,5.417-1.827A5.946,5.946,0,0,0,63.286,23.4V12.669H60.095Zm-17.126.237a5.761,5.761,0,0,1-1.276,1.9l-.016.016A5.685,5.685,0,0,1,37.5,27.25a5.794,5.794,0,0,1-2.261-.461,6.222,6.222,0,0,1-1.924-1.311v-.016a5.492,5.492,0,0,1-1.265-1.9,5.6,5.6,0,0,1-.451-2.265,5.731,5.731,0,0,1,.451-2.292A5.6,5.6,0,0,1,33.3,17.115a6.267,6.267,0,0,1,1.957-1.3,5.892,5.892,0,0,1,4.5,0,5.564,5.564,0,0,1,1.907,1.29,5.847,5.847,0,0,1,1.3,1.957,5.5,5.5,0,0,1,.449,2.241,5.743,5.743,0,0,1-.449,2.265m1.9,3.584a8.217,8.217,0,0,0,1.938-5.43,9.32,9.32,0,0,0-.683-3.543,9.213,9.213,0,0,0-2.045-2.938,8.988,8.988,0,0,0-3-1.955A9.69,9.69,0,0,0,37.5,12.6a9.477,9.477,0,0,0-3.547.681,9.237,9.237,0,0,0-3.022,1.955,8.95,8.95,0,0,0-2,2.9,8.36,8.36,0,0,0-.726,3.413,8.82,8.82,0,0,0,1.93,5.635,8.956,8.956,0,0,0,4.979,3.166,22.747,22.747,0,0,0,4.325,2.475,9.951,9.951,0,0,0,3.841.881h.342a1.272,1.272,0,0,0,.28-.029l.138-.021,2.555-2.245-.193-.541-.14-.339-.337.076a8.54,8.54,0,0,1-.887.136,3.851,3.851,0,0,1-.7.045,9.189,9.189,0,0,1-2.092-.272c-.453-.13-.971-.311-1.518-.525a9.581,9.581,0,0,0,4.154-2.85m-21.713-7.3h0l-.366-.2A11.517,11.517,0,0,1,20.614,18.1a2.469,2.469,0,0,1-.481-.6.748.748,0,0,1-.144-.414,1.159,1.159,0,0,1,.551-1.008,2.666,2.666,0,0,1,1.619-.449,4.644,4.644,0,0,1,1.755.339,8.9,8.9,0,0,1,1.973,1.189l.7.516V13.961l-.208-.126a10.132,10.132,0,0,0-2.051-.86,8.048,8.048,0,0,0-2.066-.29,6,6,0,0,0-3.922,1.294,4.286,4.286,0,0,0-1.564,3.37A4.068,4.068,0,0,0,17.6,19.9a7.392,7.392,0,0,0,1.364,1.218c.628.475,1.43.99,2.4,1.586.613.352,1.1.677,1.488.948a5.291,5.291,0,0,1,.776.642,1.742,1.742,0,0,1,.4,1.08,1.374,1.374,0,0,1-.58,1.144,2.824,2.824,0,0,1-1.737.465,4.4,4.4,0,0,1-2.068-.5A8.486,8.486,0,0,1,17.548,24.8l-.753-.815V28.3l.185.121a7.135,7.135,0,0,0,2.257,1.22,7.93,7.93,0,0,0,2.625.4,5.953,5.953,0,0,0,3.919-1.292,4.223,4.223,0,0,0,1.574-3.339,4.937,4.937,0,0,0-.837-2.926,10.557,10.557,0,0,0-3.362-2.636M-8.267,26.273a4.073,4.073,0,0,1-2.473.549h-2.987V22.16h2.568a4.9,4.9,0,0,1,2.8.607,2,2,0,0,1,.778,1.78,1.98,1.98,0,0,1-.681,1.726M-13.727,14.5h2.014A3.464,3.464,0,0,1-9.58,15a1.571,1.571,0,0,1,.434.607A2.967,2.967,0,0,1-9,16.582a2.029,2.029,0,0,1-.776,1.792,4.543,4.543,0,0,1-2.652.613h-1.3Zm6.372,5.537a4.166,4.166,0,0,0,1.183-1.076,4.206,4.206,0,0,0,.732-2.543,4.664,4.664,0,0,0-1.611-3.767,6.639,6.639,0,0,0-4.395-1.306h-5.693v18.67h6.668A7.3,7.3,0,0,0-5.79,28.6,4.714,4.714,0,0,0-4,24.726a4.763,4.763,0,0,0-1.167-3.21,5.6,5.6,0,0,0-2.193-1.475m-24.523-7.386h-3.457V30.018h12.156V27.057h-8.7Zm-13.937,9.526h8.127v-3.16h-8.127V14.482h8.36V11.365H-49.262V30.018h12.075V26.86h-8.629Z" transform="translate(1237.777 997.778)" fill="#394024"/><path d="M1.286,2.34H.772L-1.216-2.213h.588L1.029,1.606,2.687-2.213h.588Z" transform="translate(1190.159 1034.959)" fill="#394024"/><path d="M24.935-1.756h.527V1.591h-.527Zm0,3.348.619-4.364a.346.346,0,0,1-.36.348.342.342,0,0,1-.352-.348.347.347,0,0,1,.352-.342.352.352,0,0,1,.36.342" transform="translate(1169.27 1035.708)" fill="#394024"/><path d="M1.546.9A1.271,1.271,0,0,0,.3-.4,1.234,1.234,0,0,0-.958.9,1.226,1.226,0,0,0,.3,2.2,1.263,1.263,0,0,0,1.546.9m.516,1.821A1.609,1.609,0,0,1,.3,4.277a1.687,1.687,0,0,1-1.652-.864L-.9,3.072a1.2,1.2,0,0,0,1.206.7A1.154,1.154,0,0,0,1.546,2.656V2.018a1.585,1.585,0,0,1-1.333.65A1.687,1.687,0,0,1-1.462.9,1.678,1.678,0,0,1,.213-.854a1.6,1.6,0,0,1,1.333.642v-.56h.516Z" transform="translate(1197.137 1034.723)" fill="#394024"/><path d="M27.967-1.756h.525V1.591h-.525Zm0,3.348.625-4.364a.351.351,0,0,1-.364.348.342.342,0,0,1-.352-.348.347.347,0,0,1,.352-.342.357.357,0,0,1,.364.342" transform="translate(1172.478 1035.708)" fill="#394024"/><path d="M.268,2.251a.427.427,0,0,0,.471.442.958.958,0,0,0,.405-.1l.107.432A1.1,1.1,0,0,1,.658,3.2a.866.866,0,0,1-.911-.922V-2.129H.268Z" transform="translate(1202.405 1034.193)" fill="#394024"/><path d="M1.27,1.043V.87H.136c-.549,0-.842.261-.842.636,0,.352.311.6.792.6A1.115,1.115,0,0,0,1.27,1.043M1.776.271V2.446H1.27V1.938a1.5,1.5,0,0,1-1.257.6A1.076,1.076,0,0,1-1.2,1.514C-1.2.892-.732.458.145.458H1.27V.306A.792.792,0,0,0,.416-.535.857.857,0,0,0-.52.144l-.5-.111A1.325,1.325,0,0,1,.385-.986,1.225,1.225,0,0,1,1.776.271" transform="translate(1205.239 1034.854)" fill="#394024"/><path d="M1.546,1.83A1.271,1.271,0,0,0,.3.524,1.234,1.234,0,0,0-.958,1.83,1.226,1.226,0,0,0,.3,3.131a1.263,1.263,0,0,0,1.251-1.3M2.06,3.5H1.546V2.946A1.587,1.587,0,0,1,.209,3.6,1.686,1.686,0,0,1-1.462,1.83,1.678,1.678,0,0,1,.209.073,1.6,1.6,0,0,1,1.546.715V-1.731H2.06Z" transform="translate(1209.202 1033.796)" fill="#394024"/><path d="M1.273,1.043V.87H.14c-.553,0-.844.261-.844.636,0,.352.313.6.794.6A1.116,1.116,0,0,0,1.273,1.043m.5-.772V2.446h-.5V1.938a1.509,1.509,0,0,1-1.257.6A1.08,1.08,0,0,1-1.2,1.514C-1.2.892-.735.458.148.458H1.273V.306A.792.792,0,0,0,.415-.535.853.853,0,0,0-.517.144l-.5-.111A1.326,1.326,0,0,1,.388-.986,1.222,1.222,0,0,1,1.775.271" transform="translate(1213.354 1034.854)" fill="#394024"/><path d="M2.523,2.34H2.009V-1L.248,2.34H-.1L-1.87-1V2.34h-.516V-2.213h.473L.069,1.54,2.052-2.213h.471Z" transform="translate(1220.262 1034.959)" fill="#394024"/><path d="M39.437-1.756h.518V1.591h-.518Zm0,3.348.615-4.364a.346.346,0,0,1-.36.348.341.341,0,0,1-.352-.348.346.346,0,0,1,.352-.342.352.352,0,0,1,.36.342" transform="translate(1184.601 1035.708)" fill="#394024"/><path d="M1.606.734v2H1.09V.822A.941.941,0,0,0,.156-.219C-.546-.219-1,.254-1,1.127V2.736h-.514V-.612H-1v.558A1.425,1.425,0,0,1,.261-.694,1.314,1.314,0,0,1,1.606.734" transform="translate(1227.332 1034.564)" fill="#394024"/><path d="M.27.756H2.6A1.113,1.113,0,0,0,1.469-.266,1.2,1.2,0,0,0,.27.756m2.856.4H.247a1.22,1.22,0,0,0,1.193,1.2,1.143,1.143,0,0,0,1.14-.726l.461.113a1.6,1.6,0,0,1-1.6,1.068,1.694,1.694,0,0,1-1.7-1.755A1.7,1.7,0,0,1,1.469-.715,1.639,1.639,0,0,1,3.125.954Z" transform="translate(1230.004 1034.585)" fill="#394024"/><path d="M1.542,1.83A1.266,1.266,0,0,0,.295.524,1.237,1.237,0,0,0-.962,1.83a1.229,1.229,0,0,0,1.257,1.3,1.258,1.258,0,0,0,1.247-1.3M2.062,3.5H1.542V2.946A1.571,1.571,0,0,1,.215,3.6,1.685,1.685,0,0,1-1.458,1.83,1.677,1.677,0,0,1,.215.073,1.58,1.58,0,0,1,1.542.715V-1.731h.521Z" transform="translate(1235.169 1033.796)" fill="#394024"/><path d="M1.614,1.718H1.089V1.177a1.465,1.465,0,0,1-1.263.632A1.32,1.32,0,0,1-1.526.377v-2H-1V.288A.926.926,0,0,0-.078,1.321c.7,0,1.167-.465,1.167-1.335V-1.625h.525Z" transform="translate(1239.868 1035.576)" fill="#394024"/><path d="M1.469,1.174l.479.126A1.628,1.628,0,0,1,.358,2.414,1.712,1.712,0,0,1-1.389.647,1.715,1.715,0,0,1,.358-1.11,1.625,1.625,0,0,1,1.95,0l-.5.15A1.1,1.1,0,0,0,.358-.633,1.231,1.231,0,0,0-.887.647,1.22,1.22,0,0,0,.358,1.931a1.143,1.143,0,0,0,1.111-.757" transform="translate(1243.75 1034.979)" fill="#394024"/><path d="M1.273,1.043V.87H.131c-.553,0-.842.261-.842.636,0,.352.309.6.79.6A1.12,1.12,0,0,0,1.273,1.043m.5-.772V2.446h-.5V1.938a1.538,1.538,0,0,1-1.263.6A1.073,1.073,0,0,1-1.2,1.514C-1.2.892-.741.458.14.458H1.273V.306A.8.8,0,0,0,.417-.535.856.856,0,0,0-.525.144l-.5-.111A1.332,1.332,0,0,1,.38-.986,1.221,1.221,0,0,1,1.769.271" transform="translate(1247.486 1034.854)" fill="#394024"/><path d="M1.469,1.174l.475.126A1.609,1.609,0,0,1,.364,2.414,1.716,1.716,0,0,1-1.389.647,1.719,1.719,0,0,1,.364-1.11,1.628,1.628,0,0,1,1.954,0l-.5.15A1.109,1.109,0,0,0,.364-.633,1.23,1.23,0,0,0-.885.647,1.22,1.22,0,0,0,.364,1.931a1.135,1.135,0,0,0,1.1-.757" transform="translate(1251.369 1034.979)" fill="#394024"/><path d="M54.121-1.756h.527V1.591h-.527Zm0,3.348.619-4.364a.343.343,0,0,1-.358.348.341.341,0,0,1-.352-.348.346.346,0,0,1,.352-.342.348.348,0,0,1,.358.342" transform="translate(1200.136 1035.708)" fill="#394024"/><path d="M.816.49l.545-.953h.611l-.7.953ZM2.275,2.7A1.247,1.247,0,0,0,1.01,1.415,1.255,1.255,0,0,0-.272,2.7a1.269,1.269,0,0,0,1.282,1.3A1.26,1.26,0,0,0,2.275,2.7m.5,0A1.728,1.728,0,0,1,1.01,4.467,1.73,1.73,0,0,1-.772,2.7,1.712,1.712,0,0,1,1.01.957,1.71,1.71,0,0,1,2.777,2.7" transform="translate(1256.5 1032.92)" fill="#394024"/><path d="M1.607.734v2H1.093V.822A.945.945,0,0,0,.163-.219C-.543-.219-1,.254-1,1.127V2.736H-1.52V-.612H-1v.558A1.426,1.426,0,0,1,.26-.694,1.314,1.314,0,0,1,1.607.734" transform="translate(1261.687 1034.564)" fill="#394024"/></g></g></svg>